<svg width="79" height="81" viewBox="0 0 79 81" fill="none" xmlns="http://www.w3.org/2000/svg">
<path d="M11.0659 58.5795C8.04342 55.6633 5.05879 52.7598 2.04523 49.8868C0.763005 48.6644 0.192675 47.1616 0.178151 45.4395C0.124452 39.0836 0.107985 32.7274 0.0545935 26.3715C0.0404784 24.6987 -0.0657937 23.0273 0.0629808 21.3539C0.184493 19.7747 0.705114 18.3462 1.70524 17.127C3.67521 14.7257 5.66738 12.3419 7.75457 10.0408C9.0194 8.64644 10.6443 7.9191 12.4486 7.51432C14.7557 6.99685 17.0602 6.46575 19.3583 5.90902C20.1503 5.71719 20.8762 5.81049 21.5806 6.18298C22.0025 6.40608 22.4386 6.61216 22.8289 6.88304C23.3261 7.22836 23.8199 7.21801 24.3792 7.08C27.5838 6.2894 30.7926 5.51613 34.0038 4.753C34.3275 4.67611 34.5649 4.5339 34.75 4.27061C34.8872 4.07508 35.0423 3.89197 35.177 3.6948C35.9036 2.63137 36.8687 1.97027 38.1542 1.71169C40.5053 1.23893 42.8065 0.538755 45.1661 0.0993162C46.4311 -0.136398 47.6618 0.0477442 48.788 0.648769C52.9843 2.8881 57.1714 5.14497 61.3456 7.42542C63.0287 8.3449 63.6568 9.91965 63.728 11.7425C63.8326 14.4215 63.8735 17.1028 63.9667 19.7822C64.0778 22.9727 64.221 26.1621 64.3397 29.3524C64.4249 31.6391 64.4937 33.9264 64.5685 36.2135C64.6393 38.381 64.7031 40.5487 64.7814 42.7159C64.8094 43.4913 64.7093 44.2505 64.5249 44.9969C64.4529 45.2881 64.5299 45.4826 64.7121 45.6899C68.6683 50.1873 72.6211 54.6876 76.5747 59.1873C77.1041 59.7897 77.6402 60.3865 78.161 60.9963C78.7244 61.6563 79.0217 62.4186 78.9988 63.2984C78.9659 64.5573 79.0705 65.8327 78.583 67.0384C78.1143 68.1975 77.2802 68.9964 76.1025 69.3922C65.431 72.9782 54.7562 76.5547 44.0825 80.1341C43.4689 80.3399 42.8581 80.5549 42.2416 80.7516C40.6525 81.2583 39.2426 81.0068 37.9863 79.8407C33.1088 75.314 28.2131 70.807 23.3231 66.294C23.1352 66.1205 22.93 65.9658 22.7431 65.7913C22.5753 65.6346 22.4067 65.6062 22.1842 65.6785C20.3138 66.2857 18.6634 65.8031 17.2694 64.514C15.1777 62.5796 13.1481 60.5778 11.0659 58.5795ZM26.0802 46.1299C26.507 46.9184 27.0293 47.1405 28.0662 46.9395C29.0011 46.7582 29.9324 46.5572 30.864 46.3584C36.7451 45.1036 42.5581 43.5963 48.2448 41.6245C50.1599 40.9604 52.0854 40.32 53.9393 39.4944C54.8925 39.07 55.3901 38.2689 55.5005 37.2493C55.6773 35.6177 55.6647 33.9744 55.698 32.337C55.7672 28.9382 55.7166 25.5389 55.5122 22.1435C55.3923 20.151 55.2399 18.1623 54.8863 16.1955C54.7003 15.1601 54.0433 14.7214 53.0029 14.8986C51.0888 15.2245 49.2038 15.6869 47.3192 16.1456C42.1933 17.3933 37.071 18.6555 31.9504 19.9248C30.183 20.3629 28.4179 20.8132 26.6654 21.3065C25.501 21.6341 24.9727 22.3866 24.9914 23.5681C25.0126 24.8996 25.0527 26.2309 25.0971 27.5618C25.1615 29.4903 25.2312 31.4186 25.3095 33.3466C25.4383 36.5186 25.5544 39.6915 25.7215 42.8616C25.7779 43.9289 25.705 45.0172 26.0802 46.1299ZM69.2049 53.46C66.4574 50.3324 63.6914 47.2207 60.9752 44.0659C60.2771 43.255 59.5428 43.0292 58.5406 43.3344C56.2286 44.0384 53.9027 44.6963 51.5837 45.3775C46.9301 46.7446 42.2778 48.1157 37.6243 49.4831C34.3421 50.4476 31.058 51.4057 27.7766 52.3727C26.4641 52.7593 26.3136 53.2371 27.1369 54.3429C27.1573 54.3703 27.1785 54.397 27.1989 54.4244C28.4496 56.1101 29.7082 57.79 30.9495 59.4827C34.3001 64.0513 37.6425 68.6259 40.9901 73.1965C41.7081 74.1767 42.2743 74.3609 43.4175 73.9879C52.8064 70.9244 62.1951 67.8602 71.5829 64.7934C73.0881 64.3016 74.5962 63.8168 76.0884 63.2873C76.8467 63.0183 76.9807 62.4385 76.5055 61.7915C76.445 61.7091 76.3798 61.6297 76.3123 61.5528C73.9593 58.8734 71.6056 56.1944 69.2049 53.46ZM22.956 16.5282C23.0695 16.4925 23.1814 16.4503 23.2968 16.4221C26.3369 15.6794 29.3792 14.9454 32.4173 14.1951C40.1122 12.2946 47.8056 10.3875 55.4992 8.48147C56.3991 8.25857 57.2966 8.02614 58.1952 7.79822C58.2015 7.75126 58.208 7.7044 58.2143 7.65755C57.5469 7.29306 56.8812 6.92539 56.2117 6.56438C53.5417 5.12426 50.8668 3.69306 48.2016 2.24402C47.1951 1.69672 46.1504 1.55533 45.0419 1.81637C44.1476 2.02686 43.2508 2.22669 42.3571 2.43954C41.3396 2.68182 40.3245 2.93322 39.1842 3.21087C40.7115 4.1083 42.1252 4.93879 43.5536 5.77799C43.3395 6.05256 43.0808 6.0422 42.861 6.09449C37.053 7.47535 31.2429 8.84791 25.434 10.2253C25.1551 10.2914 24.9165 10.2698 24.6618 10.1092C23.3785 9.30006 22.0802 8.515 20.7966 7.70666C20.4396 7.48181 20.0908 7.42501 19.6811 7.52775C18.1137 7.92074 16.5411 8.29302 14.9712 8.67566C13.7825 8.96541 12.5656 9.15027 11.4206 9.60304C10.8576 9.82552 10.351 10.1458 9.84708 10.5704C10.1141 10.7687 10.2998 10.9162 10.495 11.0499C11.7186 11.888 12.942 12.7264 14.1698 13.5582C16.2165 14.9449 18.2701 16.3212 20.3114 17.7159C20.6657 17.9579 20.9082 17.9701 21.2231 17.6328C21.6793 17.144 22.2402 16.7787 22.956 16.5282ZM61.4589 42.0467C61.9711 42.6295 62.4833 43.2123 63.0824 43.8941C63.0824 43.5416 63.0886 43.3247 63.0815 43.1083C62.9885 40.3265 62.8981 37.5445 62.7978 34.763C62.6977 31.9821 62.5801 29.2019 62.4833 26.4209C62.3662 23.0593 62.2682 19.6971 62.1514 16.3356C62.0963 14.7487 62.0366 13.1614 61.9423 11.5765C61.8479 9.98803 60.7238 8.8799 58.9858 9.35061C56.8511 9.92887 54.6959 10.4311 52.5481 10.9604C43.1144 13.2855 33.6825 15.6186 24.2441 17.9247C22.0398 18.4634 21.1867 20.1766 21.2292 22.0989C21.2757 24.1973 21.4379 26.2929 21.4983 28.3913C21.5718 30.951 21.6844 33.5087 21.793 36.0669C21.9502 39.7684 22.0802 43.471 22.2132 47.1734C22.296 49.4774 22.3416 51.7829 22.4463 54.0857C22.4953 55.1637 22.9015 56.0877 23.9484 56.5816C24.3987 56.7939 24.5403 56.6952 24.5247 56.2009C24.4535 53.931 24.3833 51.6611 24.2942 49.392C24.1723 46.2872 24.0278 43.1833 23.9045 40.0787C23.8204 37.9632 23.7588 35.8468 23.6822 33.731C23.5543 30.199 23.406 26.6677 23.2995 23.135C23.2452 21.3374 24.2136 20.0833 25.9521 19.603C26.5914 19.4263 27.2418 19.2901 27.8861 19.1315C35.5201 17.252 43.1543 15.3732 50.7876 13.4911C52.9857 12.9493 55.1791 12.388 57.3791 11.8543C58.9065 11.4836 59.9979 12.2685 60.0655 13.7832C60.1792 16.324 60.277 18.8655 60.3734 21.4069C60.475 24.0852 60.566 26.7637 60.6637 29.4421C60.8064 33.3492 60.955 37.2559 61.0871 41.1634C61.0984 41.4947 61.1789 41.7623 61.4589 42.0467Z" fill="#171717"/>
<path d="M67.0441 64.5751C66.955 65.0834 66.5492 65.14 66.2016 65.257C62.458 66.517 58.713 67.7731 54.968 69.0294C53.6766 69.4626 52.3849 69.895 51.0926 70.3251C50.321 70.5817 50.0011 70.484 49.4909 69.8455C49.3524 69.6722 49.2364 69.4753 49.0763 69.3258C48.4398 68.7321 48.668 67.9309 49.554 67.6608C51.0193 67.2139 52.4624 66.6944 53.9152 66.2062C57.3533 65.0508 60.7904 63.8927 64.2309 62.7445C64.7041 62.5866 65.235 62.2423 65.6854 62.6287C66.2819 63.1407 66.9077 63.6778 67.0441 64.5751ZM55.7176 67.9444C58.0246 67.1655 60.3314 66.386 62.6387 65.6081C63.7681 65.2272 64.8999 64.8535 66.0268 64.4653C66.1847 64.4108 66.4911 64.3622 66.3655 64.124C66.1442 63.7046 65.8196 63.3415 65.4455 63.0418C65.1851 62.8332 64.9192 63.0206 64.6715 63.1037C59.7318 64.7609 54.7939 66.4236 49.8563 68.087C49.6991 68.1401 49.5244 68.1755 49.4235 68.3768C49.5395 68.6872 49.8067 68.9143 49.9879 69.1972C50.2359 69.5842 50.5414 69.6716 50.9866 69.5181C52.5319 68.9854 54.0881 68.4844 55.7176 67.9444Z" fill="#171717"/>
<path d="M44.6533 49.9219C45.3578 49.7019 46.0243 49.4966 46.6897 49.2882C46.9875 49.195 47.2708 49.2216 47.5074 49.4274C47.8948 49.7644 48.2368 50.15 48.484 50.6003C48.7135 51.0184 48.591 51.4054 48.137 51.5532C46.6985 52.0214 45.2492 52.4567 43.7986 52.8864C43.386 53.0086 43.0238 52.866 42.7561 52.522C42.5677 52.28 42.3735 52.0402 42.2098 51.7817C41.8741 51.2513 42.0295 50.7671 42.6195 50.5617C43.2776 50.3325 43.9493 50.1426 44.6533 49.9219ZM47.5007 50.1014C47.2988 49.8627 47.1131 49.654 46.7293 49.7787C45.5677 50.1563 44.3938 50.4961 43.229 50.8642C43.0478 50.9215 42.8219 50.9395 42.7154 51.1781C42.7863 51.2869 42.8555 51.4026 42.9338 51.5118C43.4204 52.1911 43.4447 52.2006 44.2364 51.9596C44.9506 51.7421 45.6653 51.5259 46.3758 51.2969C46.8866 51.1322 47.4214 51.0327 47.9029 50.782C47.8877 50.4925 47.6781 50.3476 47.5007 50.1014Z" fill="#171717"/>
<path d="M39.976 51.3805C40.9166 51.0826 42.1501 51.9263 42.2248 52.8842C42.2513 53.2224 42.0808 53.4507 41.7753 53.5461C40.3315 53.9975 38.8848 54.4403 37.4357 54.8744C37.1199 54.9691 36.8054 54.8807 36.5892 54.6428C36.293 54.3168 36.0075 53.9699 35.7823 53.593C35.5176 53.1499 35.7678 52.6751 36.3292 52.4986C37.5292 52.1217 38.7337 51.7588 39.976 51.3805ZM36.6705 52.9141C36.5789 52.9756 36.4225 52.9615 36.4187 53.126C36.4096 53.5313 37.1587 54.1574 37.5421 54.0427C38.7783 53.673 40.0103 53.2892 41.2435 52.9094C41.3733 52.8694 41.5037 52.8249 41.5557 52.6784C41.084 51.7224 40.845 51.6073 39.8976 51.8996C38.8432 52.2248 37.7911 52.5571 36.6705 52.9141Z" fill="#171717"/>
<path d="M59.2157 45.4681C60.1563 45.1701 61.3899 46.0138 61.4646 46.9717C61.491 47.3099 61.3206 47.5381 61.0151 47.6337C59.5712 48.085 58.1246 48.5278 56.6754 48.9619C56.3596 49.0565 56.0452 48.9682 55.829 48.7303C55.5327 48.4043 55.2472 48.0574 55.022 47.6805C54.7574 47.2375 55.0076 46.7625 55.569 46.5862C56.769 46.2091 57.9734 45.8463 59.2157 45.4681ZM55.9102 47.0016C55.8186 47.0631 55.6622 47.0489 55.6585 47.2135C55.6493 47.6189 56.3984 48.2449 56.7819 48.1302C58.0181 47.7605 59.2501 47.3767 60.4832 46.9968C60.613 46.9569 60.7435 46.9124 60.7955 46.7659C60.3238 45.81 60.0847 45.6948 59.1373 45.987C58.0829 46.3123 57.0308 46.6446 55.9102 47.0016Z" fill="#171717"/>
<path d="M30.3767 54.3537C31.5376 53.9976 32.6573 53.6463 33.7819 53.3114C34.6703 53.047 35.9005 54.0545 35.8519 54.9863C35.8372 55.2667 35.6902 55.4368 35.4444 55.513C33.9987 55.9613 32.5538 56.413 31.1005 56.8358C30.6753 56.9595 30.2964 56.8099 30.0255 56.4316C29.8768 56.2239 29.7074 56.0311 29.5537 55.8267C29.0964 55.2189 29.2685 54.6914 29.995 54.4665C30.1087 54.4313 30.2233 54.3991 30.3767 54.3537ZM30.846 54.699C30.5729 54.816 30.2412 54.8002 30.0281 55.0434C30.019 55.2741 30.2054 55.3764 30.2953 55.5336C30.5885 56.0462 30.9584 56.1321 31.5254 55.9268C32.5451 55.5576 33.5992 55.2847 34.6366 54.9642C34.8398 54.9013 35.0733 54.8843 35.2082 54.6837C34.8023 53.7088 34.5353 53.5729 33.6007 53.8583C32.7084 54.1308 31.8161 54.4034 30.846 54.699Z" fill="#171717"/>
<path d="M49.6164 48.4412C50.7773 48.0851 51.8971 47.7338 53.0217 47.3989C53.91 47.1345 55.1403 48.142 55.0916 49.0739C55.0769 49.3541 54.93 49.5244 54.6842 49.6005C53.2384 50.0487 51.7936 50.5005 50.3403 50.9233C49.915 51.047 49.5362 50.8975 49.2652 50.5192C49.1165 50.3113 48.9471 50.1186 48.7934 49.9142C48.3362 49.3064 48.5082 48.7789 49.2347 48.554C49.3485 48.5189 49.463 48.4866 49.6164 48.4412ZM50.0858 48.7865C49.8126 48.9035 49.481 48.8877 49.2678 49.1309C49.2587 49.3616 49.4451 49.4638 49.535 49.621C49.8282 50.1336 50.1982 50.2196 50.7652 50.0143C51.7848 49.645 52.8389 49.3722 53.8763 49.0516C54.0795 48.9889 54.3131 48.9718 54.448 48.7712C54.042 47.7963 53.7751 47.6604 52.8405 47.9459C51.9482 48.2183 51.0558 48.4909 50.0858 48.7865Z" fill="#171717"/>
<path d="M33.5738 58.5888C34.3235 58.3421 35.0408 58.1263 35.7479 57.8812C36.1944 57.7263 36.559 57.8304 36.8527 58.1706C37.1866 58.5574 37.5204 58.9491 37.8069 59.371C38.1774 59.9162 37.996 60.3937 37.3685 60.6046C36.6755 60.8375 35.9781 61.0577 35.2813 61.2792C34.8207 61.4256 34.439 61.2803 34.1403 60.9222C33.8783 60.6081 33.6243 60.2852 33.3934 59.9479C33.0902 59.5052 33.1526 59.0317 33.5738 58.5888ZM37.2932 59.6824C37.1469 59.1536 36.7385 58.8053 36.4094 58.4035C36.3348 58.3124 36.2115 58.2551 36.0869 58.2912C35.3285 58.5111 34.5716 58.736 33.7913 59.0777C34.0876 59.6138 34.4123 60.0394 34.7899 60.4271C34.8798 60.5195 34.9948 60.5477 35.1182 60.5087C35.8419 60.2801 36.5943 60.1323 37.2932 59.6824Z" fill="#171717"/>
<path d="M57.1661 52.31C56.7079 51.5831 56.8624 51.0777 57.613 50.792C57.9308 50.6711 58.2616 50.585 58.5852 50.4791C58.8441 50.3943 59.1186 50.3972 59.3236 50.5543C59.9061 51.0008 60.4375 51.5088 60.715 52.2111C60.8873 52.6471 60.7336 52.9778 60.2942 53.1616C60.2628 53.1747 60.2313 53.1879 60.1991 53.199C58.4586 53.8035 58.4656 53.8753 57.1661 52.31ZM59.2859 52.6652C60.3135 52.326 60.3134 52.326 59.6168 51.4915C59.5081 51.3612 59.4053 51.2254 59.2896 51.1016C59.1706 50.9743 59.0244 50.8629 58.8421 50.9172C58.411 51.0458 57.9609 51.1336 57.5197 51.4428C57.7722 51.772 58.0145 52.0724 58.2396 52.3855C58.4908 52.7347 58.8012 52.8598 59.2859 52.6652Z" fill="#171717"/>
<path d="M42.6183 55.7648C42.8509 55.6881 43.0464 55.6274 43.2381 55.5566C43.7307 55.3747 44.1403 55.494 44.4746 55.8914C44.7492 56.2178 45.0346 56.5364 45.2908 56.8767C45.7591 57.4986 45.5768 58.0545 44.8417 58.2953C44.777 58.3166 44.7105 58.3321 44.6454 58.352C43.0988 58.8285 42.5623 58.6023 41.7903 57.1475C41.4665 56.5377 41.7228 56.0925 42.6183 55.7648ZM42.3868 56.6109C42.605 56.9757 42.8479 57.3225 43.1388 57.6329C43.2419 57.7429 43.351 57.9049 43.5123 57.8611C43.9883 57.732 44.504 57.6869 44.902 57.3376C44.7732 56.9844 44.5348 56.7587 44.3464 56.5023C43.8562 55.8349 42.9237 55.8586 42.3868 56.6109Z" fill="#171717"/>
<path d="M64.4001 51.6685C63.7991 52.1551 63.119 52.3315 62.4044 52.4015C62.1905 52.4225 62.0032 52.32 61.8463 52.1863C61.4293 51.8307 61.0766 51.4125 60.7987 50.9434C60.4826 50.4099 60.6768 49.9078 61.2509 49.6727C61.2981 49.6535 61.3441 49.6313 61.3916 49.613C62.8588 49.0462 63.8025 49.4583 64.4095 50.9345C64.5037 51.1635 64.4908 51.3999 64.4001 51.6685ZM61.7962 50.9615C62.437 51.7325 62.9375 51.7622 63.8464 51.0831C63.3497 49.7692 62.3464 49.4442 61.31 50.2989C61.4561 50.4985 61.6045 50.7012 61.7962 50.9615Z" fill="#171717"/>
<path d="M47.4522 54.2314C47.7299 54.2439 47.9126 54.3689 48.0574 54.5415C48.3854 54.9324 48.7192 55.3202 49.0193 55.7322C49.3727 56.2176 49.2121 56.759 48.6545 56.9783C48.2601 57.1334 47.8499 57.2486 47.4444 57.3746C47.3655 57.3991 47.2763 57.3962 47.1918 57.3962C46.494 57.3964 45.2675 55.9631 45.3703 55.2697C45.4017 55.0583 45.4749 54.8613 45.6783 54.7693C46.2337 54.5179 46.7842 54.2439 47.4522 54.2314ZM46.1918 55.4985C46.3438 55.7026 46.486 55.915 46.6506 56.1084C46.801 56.2851 46.9124 56.5928 47.1608 56.5655C47.6691 56.5097 48.1626 56.3535 48.6356 56.0506C48.3709 55.7012 48.1474 55.4054 47.9227 55.1105C47.8713 55.043 47.8202 54.9742 47.7612 54.9138C47.4745 54.6204 46.255 54.8298 46.0826 55.2102C46.0577 55.2652 46.1272 55.3634 46.1918 55.4985Z" fill="#171717"/>
<path d="M56.2058 52.3777C57.3514 53.6975 57.2437 54.1438 55.6807 54.6841C54.7896 54.992 54.5141 54.9252 53.9141 54.1837C53.5823 53.7736 53.0837 53.446 53.1744 52.7981C53.199 52.623 53.2333 52.4666 53.3546 52.3351C54.0565 51.5746 55.5081 51.5823 56.2058 52.3777ZM55.438 52.273C54.7907 52.0078 54.3482 52.4844 53.8027 52.6472C54.5249 54.063 54.8498 54.2133 56.0467 53.7385C56.0625 53.7322 56.0788 53.7273 56.0951 53.7226C56.407 53.6336 56.4083 53.4489 56.2349 53.2287C55.9933 52.9221 55.7416 52.6234 55.438 52.273Z" fill="#171717"/>
<path d="M49.6395 53.5205C49.991 53.3798 50.3064 53.2515 50.6291 53.1455C51.5978 52.8272 51.7974 52.885 52.4251 53.6739C52.6479 53.9538 52.8757 54.2355 53.0535 54.544C53.3654 55.0857 53.1712 55.5628 52.5946 55.756C52.5463 55.7722 52.4934 55.7756 52.4463 55.7941C50.7121 56.4748 50.6151 56.097 49.5544 54.6701C49.2885 54.3123 49.2864 53.9049 49.6395 53.5205ZM51.1905 55.3106C51.6694 55.2207 52.1295 55.0787 52.5656 54.8674C52.0219 53.4525 51.1502 53.1525 50.0661 53.9645C50.2167 54.3444 50.7129 54.974 51.1905 55.3106Z" fill="#171717"/>
<path d="M38.9175 59.5067C38.6084 59.1402 38.3052 58.8151 38.0487 58.4564C37.6311 57.8724 37.7885 57.311 38.4526 57.0642C40.1836 56.4214 40.1771 56.4207 41.2181 57.783C41.3315 57.9315 41.4612 58.0708 41.5541 58.2314C41.8439 58.7322 41.6746 59.2174 41.1323 59.4255C40.8001 59.553 40.4518 59.6376 40.1181 59.7615C39.675 59.9261 39.286 59.8656 38.9175 59.5067ZM40.44 57.5544C39.9868 57.0223 39.3044 57.0517 38.4908 57.6718C38.7527 58.141 39.0918 58.5581 39.469 58.9465C39.5548 59.0349 39.6728 59.0833 39.7968 59.0336C40.2174 58.8652 40.684 58.805 41.0719 58.5125C40.9681 58.1362 40.6896 57.8975 40.44 57.5544Z" fill="#171717"/>
<path d="M36.3171 62.1054C37.0666 61.8587 37.784 61.643 38.4911 61.3978C38.9377 61.243 39.3022 61.3471 39.5959 61.6873C39.9298 62.0741 40.2637 62.4657 40.5502 62.8875C40.9205 63.4328 40.7392 63.9103 40.1117 64.1212C39.4187 64.3541 38.7213 64.5744 38.0246 64.7958C37.5638 64.9423 37.1822 64.797 36.8835 64.4388C36.6216 64.1247 36.3675 63.8018 36.1366 63.4646C35.8334 63.0217 35.8958 62.5483 36.3171 62.1054ZM40.0365 63.199C39.8901 62.6702 39.4817 62.3219 39.1526 61.9201C39.0779 61.8291 38.9548 61.7718 38.8301 61.8079C38.0717 62.0276 37.3149 62.2527 36.5345 62.5943C36.8309 63.1304 37.1555 63.556 37.533 63.9438C37.6229 64.036 37.738 64.0643 37.8614 64.0254C38.5851 63.7967 39.3375 63.649 40.0365 63.199Z" fill="#171717"/>
<path d="M59.9092 55.8266C59.451 55.0997 59.6056 54.5944 60.3561 54.3087C60.6738 54.1878 61.0047 54.1017 61.3283 53.9957C61.5873 53.9109 61.8617 53.9138 62.0667 54.071C62.6493 54.5175 63.1806 55.0254 63.4582 55.7277C63.6305 56.1637 63.4768 56.4944 63.0374 56.6783C63.0059 56.6914 62.9744 56.7045 62.9422 56.7157C61.2018 57.3202 61.2088 57.3919 59.9092 55.8266ZM62.029 56.1819C63.0566 55.8427 63.0566 55.8427 62.3599 55.0081C62.2511 54.8779 62.1484 54.742 62.0327 54.6182C61.9138 54.491 61.7675 54.3795 61.5853 54.4339C61.154 54.5625 60.7041 54.6502 60.2628 54.9595C60.5153 55.2886 60.7577 55.5891 60.9828 55.9021C61.2339 56.2514 61.5443 56.3765 62.029 56.1819Z" fill="#171717"/>
<path d="M45.3612 59.2814C45.5939 59.2047 45.7893 59.144 45.981 59.0732C46.4735 58.8914 46.8833 59.0106 47.2175 59.4081C47.4921 59.7344 47.7775 60.053 48.0338 60.3934C48.502 61.0153 48.3196 61.5711 47.5846 61.812C47.5199 61.8332 47.4534 61.8487 47.3883 61.8687C45.8417 62.3452 45.3053 62.119 44.5331 60.6642C44.2095 60.0544 44.4657 59.6091 45.3612 59.2814ZM45.1297 60.1276C45.3479 60.4923 45.5908 60.8391 45.8817 61.1496C45.9847 61.2595 46.094 61.4215 46.2553 61.3777C46.7313 61.2486 47.247 61.2035 47.6449 60.8543C47.5161 60.501 47.2777 60.2753 47.0894 60.019C46.599 59.3516 45.6666 59.3753 45.1297 60.1276Z" fill="#171717"/>
<path d="M67.1432 55.1851C66.5422 55.6717 65.8622 55.8481 65.1476 55.9181C64.9336 55.9392 64.7463 55.8366 64.5894 55.7029C64.1725 55.3473 63.8198 54.9291 63.5418 54.46C63.2258 53.9265 63.42 53.4244 63.994 53.1894C64.0412 53.1701 64.0873 53.1479 64.1349 53.1296C65.602 52.5628 66.5456 52.975 67.1527 54.4511C67.2469 54.6802 67.234 54.9165 67.1432 55.1851ZM64.5393 54.4782C65.1802 55.2492 65.6807 55.2788 66.5896 54.5997C66.0928 53.2858 65.0895 52.9608 64.0531 53.8156C64.1993 54.0151 64.3477 54.2178 64.5393 54.4782Z" fill="#171717"/>
<path d="M50.1954 57.7481C50.473 57.7606 50.6558 57.8856 50.8006 58.0582C51.1286 58.449 51.4624 58.8368 51.7624 59.2488C52.1158 59.7342 51.9553 60.2757 51.3977 60.4949C51.0033 60.65 50.5931 60.7653 50.1876 60.8912C50.1086 60.9157 50.0194 60.9128 49.935 60.9128C49.2371 60.913 48.0106 59.4798 48.1135 58.7864C48.1449 58.575 48.218 58.378 48.4215 58.2859C48.9768 58.0346 49.5274 57.7606 50.1954 57.7481ZM48.9348 59.0152C49.0868 59.2192 49.2291 59.4317 49.3938 59.6251C49.5441 59.8017 49.6555 60.1094 49.904 60.0822C50.4122 60.0263 50.9057 59.8701 51.3787 59.5672C51.114 59.2179 50.8905 58.922 50.6658 58.6271C50.6143 58.5597 50.5633 58.4909 50.5043 58.4305C50.2177 58.137 48.9981 58.3464 48.8257 58.7268C48.8007 58.7819 48.8703 58.88 48.9348 59.0152Z" fill="#171717"/>
<path d="M58.949 55.8943C60.0944 57.2142 59.9868 57.6605 58.4238 58.2007C57.5327 58.5087 57.2572 58.4418 56.6573 57.7003C56.3255 57.2903 55.8269 56.9627 55.9176 56.3147C55.942 56.1396 55.9764 55.9832 56.0978 55.8518C56.7997 55.0912 58.2513 55.0989 58.949 55.8943ZM58.1812 55.7896C57.5339 55.5245 57.0914 56.0011 56.5459 56.1639C57.2679 57.5796 57.5929 57.73 58.7899 57.2551C58.8056 57.2489 58.8219 57.2439 58.8382 57.2392C59.1501 57.1502 59.1515 56.9655 58.9781 56.7454C58.7365 56.4387 58.4848 56.14 58.1812 55.7896Z" fill="#171717"/>
<path d="M52.3826 57.0372C52.7342 56.8964 53.0496 56.7681 53.3722 56.6621C54.3409 56.3438 54.5406 56.4017 55.1683 57.1905C55.391 57.4704 55.619 57.7521 55.7966 58.0606C56.1086 58.6024 55.9145 59.0794 55.3378 59.2727C55.2895 59.2889 55.2366 59.2922 55.1895 59.3108C53.4554 59.9915 53.3582 59.6137 52.2976 58.1868C52.0316 57.8289 52.0296 57.4215 52.3826 57.0372ZM53.9337 58.8272C54.4126 58.7374 54.8726 58.5954 55.3087 58.3841C54.765 56.9691 53.8933 56.6692 52.8093 57.4812C52.9599 57.861 53.456 58.4907 53.9337 58.8272Z" fill="#171717"/>
<path d="M41.6607 63.0234C41.3516 62.6568 41.0482 62.3317 40.7918 61.9731C40.3743 61.3889 40.5317 60.8276 41.1958 60.5809C42.9267 59.9381 42.9202 59.9373 43.9612 61.2997C44.0746 61.4482 44.2043 61.5874 44.2973 61.748C44.5871 62.2488 44.4178 62.734 43.8753 62.9422C43.5432 63.0696 43.1949 63.1542 42.8612 63.2782C42.4182 63.4427 42.0292 63.3822 41.6607 63.0234ZM43.1832 61.071C42.73 60.5389 42.0475 60.5684 41.234 61.1884C41.4958 61.6576 41.835 62.0748 42.2121 62.4631C42.298 62.5516 42.416 62.5999 42.54 62.5502C42.9605 62.3819 43.4271 62.3216 43.8151 62.0291C43.7113 61.6528 43.4328 61.4141 43.1832 61.071Z" fill="#171717"/>
<path d="M39.3854 65.4889C40.135 65.2422 40.8523 65.0264 41.5595 64.7813C42.006 64.6264 42.3706 64.7305 42.6642 65.0707C42.9982 65.4575 43.332 65.8492 43.6185 66.271C43.9889 66.8163 43.8076 67.2938 43.18 67.5047C42.4871 67.7376 41.7897 67.9578 41.0929 68.1793C40.6322 68.3257 40.2506 68.1804 39.9519 67.8223C39.6899 67.5082 39.4359 67.1853 39.2049 66.848C38.9017 66.4052 38.9641 65.9318 39.3854 65.4889ZM43.1049 66.5825C42.9585 66.0537 42.55 65.7054 42.2209 65.3036C42.1463 65.2125 42.0231 65.1552 41.8984 65.1913C41.1401 65.4111 40.3832 65.6361 39.6029 65.9778C39.8992 66.5139 40.2239 66.9395 40.6014 67.3272C40.6913 67.4195 40.8064 67.4478 40.9297 67.4088C41.6535 67.1802 42.4059 67.0324 43.1049 66.5825Z" fill="#171717"/>
<path d="M62.9776 59.21C62.5194 58.4831 62.6739 57.9778 63.4245 57.6921C63.7422 57.5712 64.0731 57.4851 64.3967 57.3792C64.6557 57.2944 64.9301 57.2973 65.1351 57.4545C65.7177 57.9009 66.2489 58.4089 66.5265 59.1112C66.6989 59.5472 66.5451 59.8779 66.1057 60.0617C66.0742 60.0748 66.0427 60.088 66.0106 60.0991C64.2702 60.7036 64.2771 60.7754 62.9776 59.21ZM65.0973 59.5653C66.125 59.2261 66.125 59.2261 65.4283 58.3916C65.3195 58.2613 65.2168 58.1255 65.1011 58.0017C64.9821 57.8745 64.8359 57.763 64.6536 57.8173C64.2224 57.9459 63.7724 58.0337 63.3312 58.343C63.5836 58.6721 63.826 58.9725 64.0512 59.2856C64.3023 59.6348 64.6127 59.7599 65.0973 59.5653Z" fill="#171717"/>
<path d="M48.4298 62.6649C48.6625 62.5882 48.8579 62.5275 49.0497 62.4566C49.5421 62.2748 49.9519 62.3941 50.2862 62.7915C50.5607 63.1179 50.8461 63.4365 51.1024 63.7768C51.5706 64.3987 51.3883 64.9546 50.6532 65.1954C50.5885 65.2167 50.522 65.2322 50.4569 65.2521C48.9103 65.7286 48.3739 65.5024 47.6017 64.0476C47.2781 63.4378 47.5343 62.9926 48.4298 62.6649ZM48.1983 63.511C48.4165 63.8758 48.6594 64.2226 48.9503 64.533C49.0533 64.643 49.1626 64.805 49.3239 64.7612C49.7999 64.6321 50.3156 64.587 50.7135 64.2377C50.5847 63.8845 50.3463 63.6588 50.158 63.4024C49.6676 62.735 48.7352 62.7587 48.1983 63.511Z" fill="#171717"/>
<path d="M70.2118 58.5685C69.6108 59.0552 68.9308 59.2316 68.2162 59.3016C68.0022 59.3226 67.8149 59.2201 67.658 59.0864C67.2411 58.7308 66.8884 58.3126 66.6104 57.8435C66.2944 57.31 66.4886 56.8078 67.0626 56.5728C67.1098 56.5535 67.1559 56.5314 67.2035 56.513C68.6706 55.9463 69.6142 56.3584 70.2213 57.8346C70.3155 58.0636 70.3026 58.3 70.2118 58.5685ZM67.6079 57.8616C68.2488 58.6326 68.7493 58.6623 69.6582 57.9831C69.1614 56.6693 68.1581 56.3443 67.1217 57.199C67.2679 57.3986 67.4163 57.6013 67.6079 57.8616Z" fill="#171717"/>
<path d="M53.2637 61.1315C53.5413 61.144 53.7241 61.269 53.8689 61.4416C54.197 61.8325 54.5307 62.2203 54.8307 62.6323C55.1842 63.1176 55.0236 63.6591 54.4661 63.8783C54.0717 64.0335 53.6614 64.1487 53.256 64.2747C53.177 64.2992 53.0878 64.2963 53.0033 64.2963C52.3054 64.2965 51.079 62.8632 51.1819 62.1698C51.2133 61.9584 51.2864 61.7614 51.4898 61.6693C52.0451 61.418 52.5957 61.144 53.2637 61.1315ZM52.0032 62.3986C52.1552 62.6027 52.2975 62.8151 52.4621 63.0085C52.6125 63.1852 52.7239 63.4929 52.9723 63.4656C53.4806 63.4097 53.9741 63.2536 54.447 62.9507C54.1823 62.6013 53.9589 62.3055 53.7341 62.0106C53.6827 61.9431 53.6316 61.8743 53.5726 61.8139C53.286 61.5205 52.0665 61.7299 51.8941 62.1103C51.8691 62.1653 51.9387 62.2635 52.0032 62.3986Z" fill="#171717"/>
<path d="M62.0176 59.2778C63.163 60.5977 63.0554 61.0439 61.4924 61.5842C60.6013 61.8921 60.3258 61.8253 59.7259 61.0838C59.3941 60.6737 58.8955 60.3461 58.9862 59.6982C59.0106 59.523 59.045 59.3667 59.1664 59.2352C59.8683 58.4747 61.3199 58.4824 62.0176 59.2778ZM61.2498 59.1731C60.6025 58.9079 60.16 59.3845 59.6145 59.5473C60.3365 60.9631 60.6615 61.1134 61.8585 60.6386C61.8742 60.6323 61.8905 60.6274 61.9068 60.6227C62.2187 60.5337 62.2201 60.349 62.0467 60.1288C61.8051 59.8221 61.5534 59.5235 61.2498 59.1731Z" fill="#171717"/>
<path d="M55.4512 60.4207C55.8028 60.2799 56.1182 60.1516 56.4408 60.0456C57.4095 59.7273 57.6092 59.7851 58.2369 60.574C58.4596 60.8539 58.6876 61.1356 58.8652 61.4441C59.1772 61.9858 58.9831 62.4628 58.4064 62.6561C58.3581 62.6723 58.3052 62.6757 58.2581 62.6943C56.524 63.3749 56.4268 62.9972 55.3662 61.5702C55.1002 61.2124 55.0982 60.805 55.4512 60.4207ZM57.0023 62.2107C57.4812 62.1209 57.9412 61.9788 58.3773 61.7675C57.8336 60.3526 56.9619 60.0526 55.8779 60.8646C56.0285 61.2444 56.5246 61.8741 57.0023 62.2107Z" fill="#171717"/>
<path d="M44.7293 66.4068C44.4202 66.0402 44.1168 65.7152 43.8604 65.3565C43.4429 64.7723 43.6003 64.2111 44.2644 63.9643C45.9953 63.3215 45.9888 63.3208 47.0298 64.6831C47.1432 64.8316 47.2729 64.9709 47.3659 65.1314C47.6557 65.6322 47.4864 66.1175 46.944 66.3256C46.6118 66.4531 46.2635 66.5377 45.9298 66.6616C45.4868 66.8262 45.0978 66.7657 44.7293 66.4068ZM46.2518 64.4545C45.7986 63.9224 45.1161 63.9518 44.3026 64.5719C44.5644 65.0411 44.9036 65.4582 45.2807 65.8466C45.3666 65.935 45.4846 65.9833 45.6086 65.9337C46.0291 65.7653 46.4957 65.705 46.8837 65.4126C46.7799 65.0363 46.5014 64.7976 46.2518 64.4545Z" fill="#171717"/>
</svg>
